<?xml version="1.0" standalone="no"?>
<!DOCTYPE svg PUBLIC "-//W3C//DTD SVG 20010904//EN"
 "http://www.w3.org/TR/2001/REC-SVG-20010904/DTD/svg10.dtd">
<svg version="1.0" xmlns="http://www.w3.org/2000/svg"
 width="150.000000pt" height="150.000000pt" viewBox="0 0 150.000000 150.000000"
 preserveAspectRatio="xMidYMid meet">

<g transform="translate(0.000000,150.000000) scale(0.100000,-0.100000)"
fill="#000000" stroke="none">
<path d="M550 1485 c-7 -8 -19 -15 -28 -15 -8 0 -30 -16 -48 -36 l-34 -35 0
-250 0 -249 -39 -20 c-22 -11 -50 -34 -63 -52 -22 -32 -23 -40 -26 -265 -3
-216 -2 -234 17 -271 11 -22 37 -51 58 -63 37 -23 45 -24 313 -27 347 -4 373
-1 421 47 20 20 42 54 48 76 14 51 14 398 0 448 -22 81 -91 126 -191 127 -33
0 -38 4 -58 45 -34 71 -71 88 -183 83 -107 -4 -143 -22 -174 -88 -14 -32 -23
-40 -45 -40 l-28 0 0 238 c0 182 3 242 13 256 12 17 32 18 237 18 149 -1 226
-4 234 -12 7 -7 13 -91 16 -238 5 -219 6 -227 25 -227 19 0 20 8 23 225 2 211
1 227 -18 258 -11 18 -36 40 -55 47 -18 8 -36 19 -40 25 -4 6 -75 10 -184 10
-147 0 -181 -3 -191 -15z m253 -12 c-13 -2 -33 -2 -45 0 -13 2 -3 4 22 4 25 0
35 -2 23 -4z m74 1 c-3 -3 -12 -4 -19 -1 -8 3 -5 6 6 6 11 1 17 -2 13 -5z
m-33 -529 c14 -13 26 -34 26 -45 0 -49 16 -60 90 -60 143 0 150 -13 150 -290
0 -295 4 -290 -224 -290 -117 0 -153 4 -201 20 -191 66 -290 205 -309 435 -8
96 16 117 138 125 l79 5 14 47 c19 65 41 78 134 78 67 0 79 -3 103 -25z"/>
<path d="M942 758 c-27 -27 -6 -68 35 -68 16 0 24 7 29 25 11 43 -34 73 -64
43z"/>
<path d="M677 745 c-145 -51 -173 -258 -46 -342 148 -98 344 39 299 208 -21
78 -115 150 -195 149 -11 -1 -37 -7 -58 -15z m123 -63 c68 -34 99 -117 66
-180 -24 -47 -62 -74 -109 -79 -152 -17 -216 177 -85 257 41 25 82 25 128 2z"/>
<path d="M679 621 c-46 -46 -34 -109 25 -138 29 -14 39 -14 66 -3 63 26 76
108 23 150 -37 29 -79 26 -114 -9z m101 -16 c19 -22 10 -23 -30 -3 -33 17 -34
18 -9 18 15 0 32 -7 39 -15z"/>
<path d="M531 153 c-11 -10 -24 -32 -27 -50 -5 -27 -1 -37 24 -63 34 -34 66
-38 102 -13 33 23 40 33 40 66 0 63 -89 101 -139 60z"/>
<path d="M840 150 c-31 -31 -27 -93 6 -119 31 -25 55 -26 93 -6 32 16 41 33
41 75 0 59 -96 94 -140 50z"/>
</g>
</svg>
